<svg width="36" height="36" viewBox="0 0 36 36" fill="none" xmlns="http://www.w3.org/2000/svg">
  
  <rect x="0" y="0" width="36" height="36" rx="12" fill="#4053D6" />
  <svg x="6" y="6" width="24" height="24" xmlns="http://www.w3.org/2000/svg" viewBox="0 0 24 24" fill="white"  ><path d="M12 3C7.58 3 4 4.79 4 7s3.58 4 8 4 8-1.79 8-4-3.58-4-8-4zm0 10c-4.42 0-8-1.79-8-4v3c0 2.21 3.58 4 8 4s8-1.79 8-4v-3c0 2.21-3.58 4-8 4zm0 5c-4.42 0-8-1.79-8-4v3c0 2.21 3.58 4 8 4s8-1.79 8-4v-3c0 2.21-3.58 4-8 4z"/></svg>
</svg>